<svg xmlns="http://www.w3.org/2000/svg" viewBox="-6 13.0 508.0 90.0"><style>svg{fill:#0A0A0A}.s{stroke:#0A0A0A}</style><rect x="-1000" y="-1000" width="4000" height="4000" fill="#FAFAFA" stroke="none"/><g><rect x="0.00" y="20.00" width="17.00" height="76.00"/><polygon points="29.00,96.00 46.76,96.00 69.76,20.00 52.00,20.00"/><polygon points="73.24,96.00 91.00,96.00 68.00,20.00 50.24,20.00"/><rect x="44.00" y="62.00" width="32.00" height="17.00"/><rect x="103.00" y="20.00" width="17.00" height="76.00"/><rect x="160.00" y="20.00" width="17.00" height="76.00"/><polygon points="120.86,76.00 138.37,76.00 124.51,20.00 107.00,20.00"/><polygon points="140.00,76.00 157.51,76.00 171.37,20.00 153.86,20.00"/><path d="M 281.74 74.07 A 29.50 29.50 0 1 1 281.74 41.93" fill="none" stroke-width="17.0" stroke-linecap="butt" class="s"/><rect x="259.00" y="58.00" width="29.00" height="17.00"/><circle cx="338.00" cy="58.00" r="29.50" fill="none" stroke-width="17.0" class="s"/><rect x="388.00" y="20.00" width="17.00" height="76.00"/><rect x="388.00" y="79.00" width="48.00" height="17.00"/><rect x="448.00" y="20.00" width="17.00" height="76.00"/><rect x="448.00" y="20.00" width="48.00" height="17.00"/><rect x="448.00" y="54.00" width="42.00" height="17.00"/></g></svg>