<svg xmlns="http://www.w3.org/2000/svg" viewBox="-6 13.0 298.3 90.0"><style>svg{fill:#FAFAFA}.s{stroke:#FAFAFA}</style><rect x="-1000" y="-1000" width="4000" height="4000" fill="#0A0A0A" stroke="none"/><g><rect x="0.00" y="20.00" width="17.00" height="76.00"/><polygon points="6.00,60.00 28.59,60.00 63.59,20.00 41.00,20.00"/><polygon points="39.00,96.00 60.62,96.00 27.62,54.00 6.00,54.00"/><polygon points="70.00,96.00 87.76,96.00 110.76,20.00 93.00,20.00"/><polygon points="114.24,96.00 132.00,96.00 109.00,20.00 91.24,20.00"/><rect x="85.00" y="62.00" width="32.00" height="17.00"/><rect x="144.00" y="20.00" width="56.00" height="17.00"/><rect x="144.00" y="79.00" width="56.00" height="17.00"/><polygon points="144.00,96.00 162.92,96.00 200.01,20.00 181.09,20.00"/><circle cx="240.75" cy="68.00" r="21.00" fill="none" stroke-width="17.0" class="s"/><path d="M 219.75 68.00 A 40.00 40.00 0 0 1 278.53 32.68" fill="none" stroke-width="17.0" stroke-linecap="butt" class="s"/></g></svg>